<svg viewBox="0 0 13 10" fill="none" xmlns="http://www.w3.org/2000/svg">
<path d="M4.64988 9.19615L12.3633 1.44808C12.4556 1.35577 12.4556 1.21154 12.3518 1.11346L11.3422 0.0692315C11.3018 0.0230777 11.2441 0 11.1806 0C11.123 0 11.0653 0.0230777 11.0191 0.0692315L3.98065 7.15962L1.41911 4.59808C1.37296 4.55192 1.31526 4.52885 1.25757 4.52885C1.19988 4.52885 1.14219 4.55192 1.09603 4.59808L0.0691087 5.625C-0.023199 5.71731 -0.023199 5.86154 0.0691087 5.95385L3.29988 9.18462C3.50757 9.39231 3.75565 9.51346 3.97488 9.51346C4.28065 9.51346 4.54603 9.29423 4.64411 9.19615H4.64988Z" fill="currentColor"/>
</svg>
