<svg viewBox="0 0 25 25" fill="none" xmlns="http://www.w3.org/2000/svg">
<path d="M12.625 0.625C5.99615 0.625 0.625 5.99615 0.625 12.625C0.625 19.2538 5.99615 24.625 12.625 24.625C19.2538 24.625 24.625 19.2538 24.625 12.625C24.625 5.99615 19.2538 0.625 12.625 0.625ZM18.7692 9.30769L11.0558 17.0558H11.05C10.9519 17.1538 10.6865 17.3731 10.3808 17.3731C10.1615 17.3731 9.91346 17.2519 9.70577 17.0442L6.475 13.8135C6.38269 13.7212 6.38269 13.5769 6.475 13.4846L7.50192 12.4577C7.54808 12.4115 7.60577 12.3885 7.66346 12.3885C7.72115 12.3885 7.77885 12.4115 7.825 12.4577L10.3865 15.0192L17.425 7.92885C17.4712 7.88269 17.5288 7.85961 17.5865 7.85961C17.65 7.85961 17.7077 7.88269 17.7481 7.92885L18.7577 8.97308C18.8615 9.07115 18.8615 9.21538 18.7692 9.30769Z" fill="currentColor"/>
</svg>
