<svg viewBox="0 0 20 20" fill="none" xmlns="http://www.w3.org/2000/svg">
<path fill-rule="evenodd" clip-rule="evenodd" d="M13.707 12.2933C14.098 12.6842 14.098 13.3162 13.707 13.7073C13.512 13.9023 13.256 14.0002 13 14.0002C12.744 14.0002 12.488 13.9023 12.293 13.7073L10 11.4142L7.70701 13.7073C7.51201 13.9023 7.25601 14.0002 7.00001 14.0002C6.74401 14.0002 6.48801 13.9023 6.29301 13.7073C5.90201 13.3162 5.90201 12.6842 6.29301 12.2933L8.58601 10.0002L6.29301 7.70725C5.90201 7.31625 5.90201 6.68425 6.29301 6.29325C6.68401 5.90225 7.31601 5.90225 7.70701 6.29325L10 8.58625L12.293 6.29325C12.684 5.90225 13.316 5.90225 13.707 6.29325C14.098 6.68425 14.098 7.31625 13.707 7.70725L11.414 10.0002L13.707 12.2933ZM10 2C5.582 2 2 5.582 2 10C2 14.418 5.582 18 10 18C14.418 18 18 14.418 18 10C18 5.582 14.418 2 10 2Z" fill="currentColor"/>
</svg>
