<svg viewBox="0 0 20 20" fill="none" xmlns="http://www.w3.org/2000/svg">
<path d="M14.9498 6.46443C15.3403 6.07391 15.3403 5.44074 14.9498 5.05022C14.5593 4.65969 13.9261 4.65969 13.5356 5.05022L14.9498 6.46443ZM5.05029 13.5355C4.65976 13.926 4.65976 14.5592 5.05029 14.9497C5.44081 15.3402 6.07398 15.3402 6.4645 14.9497L5.05029 13.5355ZM13.5356 5.05022L5.05029 13.5355L6.4645 14.9497L14.9498 6.46443L13.5356 5.05022Z" fill="currentColor"/>
<path d="M13.5356 14.9498C13.9261 15.3403 14.5593 15.3403 14.9498 14.9498C15.3403 14.5593 15.3403 13.9261 14.9498 13.5356L13.5356 14.9498ZM6.4645 5.05029C6.07398 4.65976 5.44081 4.65976 5.05029 5.05029C4.65976 5.44081 4.65976 6.07398 5.05029 6.4645L6.4645 5.05029ZM14.9498 13.5356L6.4645 5.05029L5.05029 6.4645L13.5356 14.9498L14.9498 13.5356Z" fill="currentColor"/>
</svg>
