<svg viewBox="0 0 16 20" fill="none" xmlns="http://www.w3.org/2000/svg">
<path fill-rule="evenodd" clip-rule="evenodd" d="M2.97088 0C1.98059 0 1.23978e-05 0.595559 1.23978e-05 2.9778L0 17.0222C0 19.4044 1.98058 20 2.97087 20H13.0291C14.0194 20 16 19.4044 16 17.0222L16 6.69429C16 6.55835 16 6.45189 15.835 6.28646L10.2233 0.661733C10.2233 0.661733 10.2233 0.661733 10.2233 0.661733C10.2233 0.661731 9.56311 0 9.23302 0H2.97088ZM13.7108 6.47346L9.70829 2.46158C9.28946 2.04177 8.57282 2.33879 8.57282 2.93218V6.94406C8.57282 7.31181 8.87055 7.60993 9.23782 7.60993H13.2404C13.8327 7.60993 14.1294 6.89303 13.7108 6.47346Z" fill="currentColor"/>
</svg>
